#N canvas 0 50 450 300 10;
#X obj 162 53 *~ 0.064;
#X obj 162 75 rpole~ 0.93538;
#X obj 162 97 *~ 0.00431;
#X obj 162 119 cpole~ 0.96559 0.05592;
#X obj 162 141 cpole~ 0.96559 0.05592;
#X obj 162 165 *~ 0.125;
#X obj 161 189 rzero~ -1;
#X obj 161 211 rzero~ -1;
#X obj 161 233 rzero~ -1;
#X obj 163 31 inlet~;
#X obj 161 253 outlet~;
#X obj 305 222 block~ 1024 1 16;
#X connect 0 0 1 0;
#X connect 1 0 2 0;
#X connect 2 0 3 0;
#X connect 3 0 4 0;
#X connect 3 1 4 1;
#X connect 4 0 5 0;
#X connect 5 0 6 0;
#X connect 6 0 7 0;
#X connect 7 0 8 0;
#X connect 8 0 10 0;
#X connect 9 0 0 0;
