#N canvas -8 -8 1920 998 10;
#X obj 861 907 dac~;
#X obj 862 856 AAF;
#X obj 862 876 hip~ 1;
#X obj 609 179 adc~;
#X obj 608 205 hip~ 1000;
#X obj 1116 156 hsl 128 15 0 127 0 0 empty empty empty -2 -8 0 10 -262144
-1 -1 0 1;
#X obj 1116 176 mtof;
#X obj 1116 196 phasor~;
#X obj 1116 216 expr~ $v1>0.5;
#X obj 721 245 tgl 15 0 empty empty empty 17 7 0 10 -262144 -1 -1 0
1;
#X obj 703 275 *~;
#X obj 747 260 * -1;
#X obj 747 280 + 1;
#X obj 729 305 *~;
#X obj 608 225 *~ 2.7;
#X obj 869 334 samphold~;
#X obj 870 291 noise~;
#X obj 846 776 *~ 0.05;
#X obj 738 489 mtof~;
#X obj 870 311 expr~ ($v1/2)+0.5;
#X obj 595 504 +~ 40;
#X obj 595 484 *~ 36;
#X obj 817 518 phasor~;
#X obj 817 538 expr~ $v1>0.5;
#X obj 815 624 *~ 0.5;
#X obj 1117 288 *~ -1;
#X obj 1088 434 lop~ 1000;
#X obj 834 234 inlet~;
#X obj 1084 258 inlet~;
#X connect 1 0 2 0;
#X connect 2 0 0 0;
#X connect 2 0 0 1;
#X connect 3 0 4 0;
#X connect 4 0 14 0;
#X connect 5 0 6 0;
#X connect 6 0 7 0;
#X connect 7 0 8 0;
#X connect 9 0 10 1;
#X connect 9 0 11 0;
#X connect 11 0 12 0;
#X connect 12 0 13 1;
#X connect 16 0 19 0;
#X connect 18 0 22 0;
#X connect 19 0 15 0;
#X connect 21 0 20 0;
#X connect 22 0 23 0;
#X connect 23 0 24 0;
#X connect 24 0 17 0;
#X connect 25 0 15 1;
#X connect 27 0 19 0;
#X connect 28 0 25 0;
