#N canvas 0 50 1920 998 10;
#X obj 366 117 adc~;
#X obj 365 136 hip~ 1000;
#X obj 685 796 *~;
#X obj 684 851 hip~ 1;
#X obj 684 871 dac~;
#X obj 708 717 hsl 128 15 0.01 1.01 1 0 empty empty empty -2 -8 0 10
-262144 -1 -1 12700 1;
#X obj 705 737 - 0.01;
#X msg 705 757 \$1 10;
#X obj 705 777 line~;
#X obj 888 488 *~;
#X obj 911 389 hsl 128 15 0.01 1.01 1 0 empty empty empty -2 -8 0 10
-262144 -1 -1 0 1;
#X obj 908 409 - 0.01;
#X msg 908 449 \$1 10;
#X obj 908 469 line~;
#X obj 1126 242 tgl 15 0 empty empty empty 17 7 0 10 -262144 -1 -1
1 1;
#N canvas 0 50 450 250 (subpatch) 0;
#X array lfo 100 float 3;
#A 0 0 0 0 0 0 0 0 0 0 0 0 0 0 0 0 0 0 0 0 0 0 0 0 0 0 0 0 0 0 0 0
0 0 0 0 0 0 0 0 0 0 0 0 0 0 0 0 0 0 0 0 0 0 0 0 0 0 0 0 0 0 0 0 0 0
0 0 0 0 0 0 0 0 0 0 0 0 0 0 0 0 0 0 0 0 0 0 0 0 0 0 0 0 0 0 0 0 0 0
0;
#X coords 0 1 100 -1 200 140 1 0 0;
#X restore 1344 525 graph;
#X obj 874 109 phasor~;
#X obj 874 129 cos~;
#X obj 828 588 *~;
#X obj 851 509 hsl 128 15 0.01 1.01 1 0 empty empty empty -2 -8 0 10
-262144 -1 -1 12673 1;
#X obj 848 529 - 0.01;
#X msg 848 549 \$1 10;
#X obj 848 569 line~;
#X obj 661 378 delwrite~ woofbork 100;
#X obj 875 148 +~ 1;
#X obj 875 168 *~ 0.5;
#X obj 881 356 delread4~ woofbork;
#X obj 874 22 hsl 128 15 1 128 0 0 empty empty empty -2 -8 0 10 -262144
-1 -1 0 1;
#X obj 874 72 / 127;
#X obj 684 825 AAf;
#X obj 884 251 *~ 2.5;
#X obj 623 714 lop~;
#X obj 651 632 hsl 128 15 0 127 0 0 empty empty empty -2 -8 0 10 -262144
-1 -1 6400 1;
#X obj 648 652 / 127;
#X obj 924 192 hsl 128 15 0 127 0 0 empty empty empty -2 -8 0 10 -262144
-1 -1 0 1;
#X obj 924 212 / 127;
#X obj 648 692 * 3000;
#X obj 648 672 + 0.01;
#X obj 911 632 hsl 128 15 0 127 0 0 empty empty empty -2 -8 0 10 -262144
-1 -1 6400 1;
#X obj 908 652 / 127;
#X obj 908 712 * 3000;
#X obj 883 734 hip~;
#X obj 908 672 * -1;
#X obj 908 692 + 0.99;
#X obj 713 331 tgl 15 0 empty empty empty 17 7 0 10 -262144 -1 -1 0
1;
#X obj 693 351 *~;
#X obj 876 446 *~;
#X obj 1126 266 sel 0;
#X msg 1133 296 0;
#X obj 1119 322 tgl 15 0 empty empty empty 17 7 0 10 -262144 -1 -1
0 1;
#X msg 1173 296 0;
#X obj 1159 322 tgl 15 0 empty empty empty 17 7 0 10 -262144 -1 -1
1 1;
#X obj 913 338 +~;
#X floatatom 1120 410 5 0 0 0 - - -, f 5;
#X msg 1119 349 20;
#X msg 1159 342 2;
#X obj 874 92 * 10;
#X obj 1118 196 loadbang;
#X obj 457 321 inlet~;
#X obj 1093 35 t b b;
#X msg 1003 465 1;
#X msg 896 582 64;
#X obj 1067 429 t b b;
#X obj 474 464 *~;
#X obj 494 504 *~;
#X obj 492 440 tgl 15 0 empty empty empty 17 7 0 10 -262144 -1 -1 0
1;
#X obj 512 461 * -1;
#X obj 512 481 + 1;
#X obj 717 826 outlet~;
#X obj 908 429 clip 0 0.9;
#X floatatom 780 790 5 0 0 0 - - -, f 5;
#X obj 924 232 * 5;
#X obj 871 42 + 1;
#X obj 341 593 osc~ 440;
#X obj 586 508 bng 15 250 50 0 empty empty empty 17 7 0 10 -262144
-1 -1;
#X obj 507 597 +~ 1;
#X obj 507 657 expr~ int($v1);
#X obj 507 697 -~ 1;
#X obj 421 563 *~ 3;
#X obj 507 617 *~ 127.5;
#X obj 507 677 /~ 127.5;
#X obj 507 637 clip~ 0 255;
#X connect 0 0 1 0;
#X connect 1 0 63 0;
#X connect 1 0 64 0;
#X connect 2 0 29 0;
#X connect 2 0 68 0;
#X connect 3 0 4 0;
#X connect 3 0 4 1;
#X connect 5 0 6 0;
#X connect 6 0 7 0;
#X connect 6 0 70 0;
#X connect 7 0 8 0;
#X connect 8 0 2 1;
#X connect 9 0 23 0;
#X connect 10 0 11 0;
#X connect 11 0 69 0;
#X connect 12 0 13 0;
#X connect 13 0 9 1;
#X connect 14 0 47 0;
#X connect 16 0 17 0;
#X connect 17 0 24 0;
#X connect 18 0 31 0;
#X connect 18 0 41 0;
#X connect 19 0 20 0;
#X connect 20 0 21 0;
#X connect 21 0 22 0;
#X connect 22 0 18 1;
#X connect 24 0 25 0;
#X connect 25 0 30 0;
#X connect 26 0 18 0;
#X connect 26 0 46 0;
#X connect 27 0 72 0;
#X connect 28 0 56 0;
#X connect 29 0 3 0;
#X connect 30 0 52 0;
#X connect 31 0 2 0;
#X connect 32 0 33 0;
#X connect 33 0 37 0;
#X connect 34 0 35 0;
#X connect 35 0 71 0;
#X connect 36 0 31 1;
#X connect 37 0 36 0;
#X connect 38 0 39 0;
#X connect 39 0 42 0;
#X connect 40 0 41 1;
#X connect 41 0 2 0;
#X connect 42 0 43 0;
#X connect 43 0 40 0;
#X connect 44 0 45 1;
#X connect 45 0 31 0;
#X connect 45 0 41 0;
#X connect 46 0 9 0;
#X connect 47 0 49 0;
#X connect 47 0 48 0;
#X connect 47 1 51 0;
#X connect 47 1 50 0;
#X connect 48 0 51 0;
#X connect 49 0 46 1;
#X connect 49 0 54 0;
#X connect 50 0 49 0;
#X connect 51 0 55 0;
#X connect 52 0 26 0;
#X connect 54 0 52 1;
#X connect 54 0 53 0;
#X connect 55 0 52 1;
#X connect 55 0 53 0;
#X connect 56 0 16 0;
#X connect 57 0 14 0;
#X connect 57 0 59 0;
#X connect 57 0 62 0;
#X connect 58 0 63 0;
#X connect 58 0 64 0;
#X connect 59 0 27 0;
#X connect 59 1 34 0;
#X connect 60 0 19 0;
#X connect 61 0 32 0;
#X connect 61 0 38 0;
#X connect 62 0 60 0;
#X connect 62 1 61 0;
#X connect 63 0 45 0;
#X connect 63 0 23 0;
#X connect 64 0 68 0;
#X connect 64 0 78 0;
#X connect 65 0 63 1;
#X connect 65 0 66 0;
#X connect 66 0 67 0;
#X connect 67 0 64 1;
#X connect 69 0 12 0;
#X connect 71 0 30 1;
#X connect 72 0 28 0;
#X connect 75 0 79 0;
#X connect 76 0 80 0;
#X connect 77 0 2 0;
#X connect 78 0 75 0;
#X connect 79 0 81 0;
#X connect 80 0 77 0;
#X connect 81 0 76 0;
