#N canvas 0 50 1916 998 10;
#X obj 701 292 adc~;
#X obj 956 909 dac~;
#X obj 957 879 hip~ 1;
#X obj 956 850 *~;
#X obj 981 655 vsl 15 128 0.01 1.01 1 0 empty empty empty 0 -9 0 10
-262144 -1 -1 9300 1;
#X obj 981 791 - 0.01;
#X msg 981 811 \$1 10;
#X obj 981 831 line~;
#X obj 703 384 *~;
#X obj 773 289 tgl 15 0 empty empty empty 17 7 0 10 -262144 -1 -1 0
1;
#X obj 773 309 * -1;
#X obj 773 329 + 1;
#N canvas 0 50 450 300 gainstage 0;
#X obj 143 210 cyclone/tanh~;
#X obj 143 146 inlet~;
#X obj 142 253 outlet~;
#X obj 144 177 *~ 100;
#X connect 0 0 2 0;
#X connect 1 0 3 0;
#X connect 3 0 0 0;
#X restore 820 444 pd gainstage;
#X obj 819 405 *~;
#X obj 838 204 vsl 15 128 0.01 1.01 1 0 empty empty empty 0 -9 0 10
-262144 -1 -1 8800 1;
#X obj 838 340 - 0.01;
#X msg 838 360 \$1 10;
#X obj 838 380 line~;
#X obj 816 860 *~;
#X obj 841 665 vsl 15 128 0.01 1.01 1 0 empty empty empty 0 -9 0 10
-262144 -1 -1 7400 1;
#X obj 841 801 - 0.01;
#X msg 841 821 \$1 10;
#X obj 841 841 line~;
#X obj 701 316 hip~ 1000;
#X obj 778 517 lop~ 482.39;
#X obj 884 516 hip~ 1206.27;
#X obj 886 600 *~;
#X obj 1071 395 vsl 15 128 0 1 0 0 empty empty empty 0 -9 0 10 -262144
-1 -1 5900 1;
#X msg 1071 551 \$1 10;
#X obj 1071 571 line~;
#X obj 836 600 *~;
#X obj 1134 549 * -1;
#X obj 1134 569 + 1;
#X msg 1134 591 \$1 10;
#X obj 1134 611 line~;
#N canvas 0 50 450 300 gainstage 0;
#X obj 143 210 cyclone/tanh~;
#X obj 143 146 inlet~;
#X obj 142 253 outlet~;
#X obj 144 177 *~ 100;
#X connect 0 0 2 0;
#X connect 1 0 3 0;
#X connect 3 0 0 0;
#X restore 820 474 pd gainstage;
#X obj 788 382 *~;
#X obj 632 292 inlet~;
#X obj 815 902 outlet~;
#X connect 0 0 23 0;
#X connect 2 0 1 0;
#X connect 2 0 1 1;
#X connect 3 0 2 0;
#X connect 4 0 5 0;
#X connect 5 0 6 0;
#X connect 6 0 7 0;
#X connect 7 0 3 1;
#X connect 8 0 3 0;
#X connect 9 0 10 0;
#X connect 9 0 36 1;
#X connect 10 0 11 0;
#X connect 11 0 8 1;
#X connect 12 0 35 0;
#X connect 13 0 12 0;
#X connect 14 0 15 0;
#X connect 15 0 16 0;
#X connect 16 0 17 0;
#X connect 17 0 13 1;
#X connect 18 0 3 0;
#X connect 18 0 38 0;
#X connect 19 0 20 0;
#X connect 20 0 21 0;
#X connect 21 0 22 0;
#X connect 22 0 18 1;
#X connect 23 0 8 0;
#X connect 23 0 36 0;
#X connect 24 0 30 0;
#X connect 25 0 26 0;
#X connect 26 0 18 0;
#X connect 27 0 28 0;
#X connect 27 0 31 0;
#X connect 28 0 29 0;
#X connect 29 0 26 1;
#X connect 30 0 18 0;
#X connect 31 0 32 0;
#X connect 32 0 33 0;
#X connect 33 0 34 0;
#X connect 34 0 30 1;
#X connect 35 0 24 0;
#X connect 35 0 25 0;
#X connect 36 0 13 0;
#X connect 37 0 23 0;
