#N canvas 0 0 1276 717 10;
#X obj 271 512 osc~;
#X obj 271 483 +~;
#X obj 245 399 mtof~;
#X obj 297 451 *~;
#X obj 312 397 / 127;
#X obj 312 424 * 2000;
#X obj 315 372 hsl 128 15 0 127 0 0 empty empty empty -2 -8 0 10 -262144
-1 -1 0 1;
#X obj 619 563 dac~;
#X obj 620 440 *~;
#X obj 635 413 / 127;
#X obj 635 271 vsl 15 128 0 127 0 0 empty empty empty 0 -9 0 10 -262144
-1 -1 0 1;
#X obj 620 536 hip~ 1;
#X obj 282 310 osc~;
#X obj 282 281 +~;
#X obj 256 197 mtof~;
#X obj 308 249 *~;
#X obj 323 195 / 127;
#X obj 323 222 * 2000;
#X obj 326 170 hsl 128 15 0 127 0 0 empty empty empty -2 -8 0 10 -262144
-1 -1 0 1;
#X obj 289 146 osc~;
#X obj 289 117 +~;
#X obj 263 33 mtof~;
#X obj 315 85 *~;
#X obj 330 31 / 127;
#X obj 330 58 * 2000;
#X obj 333 6 hsl 128 15 0 127 0 0 empty empty empty -2 -8 0 10 -262144
-1 -1 0 1;
#X obj 737 468 tgl 15 0 empty empty empty 17 7 0 10 -262144 -1 -1 1
1;
#X obj 737 495 metro 100;
#X obj 737 525 tabwrite~ array1;
#N canvas 0 0 450 300 (subpatch) 0;
#X array array1 100 float 1;
#A 0 0 0 0 0 0 0 0 0 0 0 0 0 0 0 0 0 0 0 0 0 0 0 0 0 0 0 0 0 0 0 0
0 0 0 0 0 0 0 0 0 0 0 0 0 0 0 0 0 0 0 0 0 0 0 0 0 0 0 0 0 0 0 0 0 0
0 0 0 0 0 0 0 0 0 0 0 0 0 0 0 0 0 0 0 0 0 0 0 0 0 0 0 0 0 0 0 0 0 0
0;
#X coords 0 1 99 -1 200 140 1 0 0;
#X restore 854 460 graph;
#X floatatom 165 426 5 0 0 0 - - -;
#X obj 171 572 delwrite~ gin 1000;
#X obj 476 225 mtof~;
#X obj 471 199 hsl 128 15 0 127 0 0 empty empty empty -2 -8 0 10 -262144
-1 -1 5400 1;
#X obj 476 256 vd~ gin 800;
#X obj 549 284 *~;
#X obj 564 257 / 127;
#X obj 567 231 hsl 128 15 0 127 0 0 empty empty empty -2 -8 0 10 -262144
-1 -1 5500 1;
#X obj 548 317 bp~ 880 1;
#X obj 619 484 *~ 0.1;
#X obj 171 159 *~ 0.999;
#X obj 152 31 *~ 0.998;
#X obj 861 307 osc~;
#X obj 861 278 +~;
#X obj 835 194 mtof~;
#X obj 887 246 *~;
#X obj 902 192 / 127;
#X obj 902 219 * 2000;
#X obj 905 167 hsl 128 15 0 127 0 0 empty empty empty -2 -8 0 10 -262144
-1 -1 0 1;
#X obj 860 142 osc~;
#X obj 860 113 +~;
#X obj 834 29 mtof~;
#X obj 886 81 *~;
#X obj 901 27 / 127;
#X obj 901 54 * 2000;
#X obj 904 2 hsl 128 15 0 127 0 0 empty empty empty -2 -8 0 10 -262144
-1 -1 0 1;
#X obj 982 380 osc~;
#X obj 982 351 +~;
#X obj 956 267 mtof~;
#X obj 1008 319 *~;
#X obj 1023 265 / 127;
#X obj 1023 292 * 2000;
#X obj 1026 240 hsl 128 15 0 127 0 0 empty empty empty -2 -8 0 10 -262144
-1 -1 0 1;
#X obj 956 239 - 24;
#X obj 71 344 key;
#X obj 71 371 - 24;
#X connect 0 0 8 0;
#X connect 0 0 31 0;
#X connect 1 0 0 0;
#X connect 2 0 1 0;
#X connect 3 0 1 1;
#X connect 4 0 5 0;
#X connect 5 0 3 1;
#X connect 6 0 4 0;
#X connect 8 0 39 0;
#X connect 9 0 8 1;
#X connect 10 0 9 0;
#X connect 11 0 7 0;
#X connect 11 0 7 1;
#X connect 12 0 3 0;
#X connect 13 0 12 0;
#X connect 14 0 13 0;
#X connect 15 0 13 1;
#X connect 16 0 17 0;
#X connect 17 0 15 1;
#X connect 18 0 16 0;
#X connect 19 0 15 0;
#X connect 20 0 19 0;
#X connect 21 0 20 0;
#X connect 22 0 20 1;
#X connect 23 0 24 0;
#X connect 24 0 22 1;
#X connect 25 0 23 0;
#X connect 26 0 27 0;
#X connect 27 0 28 0;
#X connect 32 0 34 0;
#X connect 33 0 32 0;
#X connect 34 0 8 0;
#X connect 34 0 35 0;
#X connect 35 0 38 0;
#X connect 36 0 35 1;
#X connect 37 0 36 0;
#X connect 38 0 31 0;
#X connect 39 0 11 0;
#X connect 39 0 28 0;
#X connect 40 0 14 0;
#X connect 40 0 44 0;
#X connect 41 0 21 0;
#X connect 41 0 51 0;
#X connect 42 0 8 0;
#X connect 42 0 31 0;
#X connect 42 0 59 0;
#X connect 43 0 42 0;
#X connect 44 0 43 0;
#X connect 45 0 43 1;
#X connect 46 0 47 0;
#X connect 47 0 45 1;
#X connect 48 0 46 0;
#X connect 49 0 45 0;
#X connect 50 0 49 0;
#X connect 51 0 50 0;
#X connect 52 0 50 1;
#X connect 53 0 54 0;
#X connect 54 0 52 1;
#X connect 55 0 53 0;
#X connect 56 0 8 0;
#X connect 56 0 31 0;
#X connect 57 0 56 0;
#X connect 58 0 57 0;
#X connect 59 0 57 1;
#X connect 60 0 61 0;
#X connect 61 0 59 1;
#X connect 62 0 60 0;
#X connect 63 0 58 0;
#X connect 64 0 65 0;
#X connect 65 0 2 0;
#X connect 65 0 40 0;
#X connect 65 0 41 0;
#X connect 65 0 63 0;
#X connect 65 0 30 0;
