#N canvas 613 63 553 493 10;
#X obj 221 85 inlet;
#X obj 221 119 sel 0;
#X obj 248 151 t b b b;
#X obj 267 265 pack 1 0;
#X obj 230 265 0;
#X text 272 250 Attack;
#X obj 332 181 + 1;
#X obj 333 211 delay;
#X obj 333 263 pack 0 0 0;
#X obj 333 289 route 0;
#X text 346 248 Decay;
#X obj 114 265 pack 0 0;
#X text 118 250 Release;
#X msg 212 180 stop;
#X obj 332 63 r Pa;
#X obj 378 63 r Pd;
#X obj 423 63 r Ps;
#X obj 159 64 r Pr;
#X obj 230 318 line;
#X obj 230 370 outlet;
#X connect 0 0 1 0;
#X connect 1 0 11 0;
#X connect 1 0 13 0;
#X connect 1 1 2 0;
#X connect 2 0 7 0;
#X connect 2 1 3 0;
#X connect 2 2 4 0;
#X connect 3 0 18 0;
#X connect 4 0 18 0;
#X connect 6 0 7 1;
#X connect 7 0 8 0;
#X connect 8 0 9 0;
#X connect 9 0 18 0;
#X connect 11 0 18 0;
#X connect 13 0 7 0;
#X connect 14 0 3 1;
#X connect 14 0 6 0;
#X connect 15 0 8 2;
#X connect 16 0 8 1;
#X connect 17 0 11 1;
#X connect 18 0 19 0;
