#N canvas 0 50 1916 998 10;
#N canvas 442 78 1280 717 FMVoice 0;
#X obj 199 590 *~;
#X obj 388 1 inlet;
#X obj 161 170 +~;
#X obj 388 32 unpack 0 0;
#X obj 141 142 r Coarse1;
#X obj 198 621 *~;
#X obj 262 522 sel 0;
#X obj 262 557 / 127;
#X obj 262 490 r Velocity;
#X obj 455 81 s Velocity;
#X obj 214 558 ADSR1;
#X obj 198 349 +~;
#X obj 235 632 r~ OP1_AM;
#X obj 197 494 +~;
#X obj 221 156 / 254;
#X obj 173 195 +~;
#X obj 221 129 r Fine1;
#X obj 262 609 line~;
#X msg 262 584 \$1 5;
#X obj 198 522 cos~;
#X obj 197 412 phasor~;
#X obj 252 233 r~ OP1_FM;
#X obj 221 437 catch~ in1;
#X obj 221 468 *~;
#X obj 283 398 r OP1_Index;
#X obj 198 234 +~;
#X obj 228 176 r Oct1;
#X obj 228 196 * 12;
#X obj 198 661 *~;
#X obj 199 260 +~;
#X obj 257 688 *~;
#X obj 284 670 tgl 15 0 empty empty empty 17 7 0 10 -262144 -1 -1 1
1;
#X obj 311 628 loadbang;
#X obj 304 650 r AM_Bypass1;
#X obj 429 590 *~;
#X obj 391 170 +~;
#X obj 428 621 *~;
#X obj 492 522 sel 0;
#X obj 492 557 / 127;
#X obj 492 490 r Velocity;
#X obj 427 494 +~;
#X obj 451 156 / 254;
#X obj 403 195 +~;
#X obj 492 609 line~;
#X msg 492 584 \$1 5;
#X obj 428 522 cos~;
#X obj 427 412 phasor~;
#X obj 451 468 *~;
#X obj 428 234 +~;
#X obj 458 196 * 12;
#X obj 428 661 *~;
#X obj 429 260 +~;
#X obj 487 688 *~;
#X obj 514 670 tgl 15 0 empty empty empty 17 7 0 10 -262144 -1 -1 1
1;
#X obj 541 628 loadbang;
#X obj 659 590 *~;
#X obj 621 170 +~;
#X obj 658 621 *~;
#X obj 722 522 sel 0;
#X obj 722 557 / 127;
#X obj 722 490 r Velocity;
#X obj 657 494 +~;
#X obj 681 156 / 254;
#X obj 633 195 +~;
#X obj 722 609 line~;
#X msg 722 584 \$1 5;
#X obj 658 522 cos~;
#X obj 657 412 phasor~;
#X obj 681 468 *~;
#X obj 658 234 +~;
#X obj 688 196 * 12;
#X obj 658 661 *~;
#X obj 659 260 +~;
#X obj 717 688 *~;
#X obj 744 670 tgl 15 0 empty empty empty 17 7 0 10 -262144 -1 -1 1
1;
#X obj 771 628 loadbang;
#X obj 889 590 *~;
#X obj 851 170 +~;
#X obj 888 621 *~;
#X obj 952 522 sel 0;
#X obj 952 557 / 127;
#X obj 952 490 r Velocity;
#X obj 925 632 r~ OP1_AM;
#X obj 887 494 +~;
#X obj 911 156 / 254;
#X obj 863 195 +~;
#X obj 952 609 line~;
#X msg 952 584 \$1 5;
#X obj 888 522 cos~;
#X obj 887 412 phasor~;
#X obj 911 468 *~;
#X obj 888 234 +~;
#X obj 918 196 * 12;
#X obj 888 661 *~;
#X obj 889 260 +~;
#X obj 947 688 *~;
#X obj 974 670 tgl 15 0 empty empty empty 17 7 0 10 -262144 -1 -1 1
1;
#X obj 1001 628 loadbang;
#X obj 371 142 r Coarse2;
#X obj 451 129 r Fine2;
#X obj 458 176 r Oct2;
#X obj 482 233 r~ OP2_FM;
#X obj 513 398 r OP2_Index;
#X obj 451 437 catch~ in2;
#X obj 444 558 ADSR2;
#X obj 465 632 r~ OP2_AM;
#X obj 534 650 r AM_Bypass2;
#X obj 601 142 r Coarse3;
#X obj 681 129 r Fine3;
#X obj 688 176 r Oct3;
#X obj 712 233 r~ OP3_FM;
#X obj 743 398 r OP3_Index;
#X obj 680 437 catch~ in3;
#X obj 674 558 ADSR3;
#X obj 695 632 r~ OP3_AM;
#X obj 764 650 r AM_Bypass3;
#X obj 831 142 r Coarse4;
#X obj 911 129 r Fine4;
#X obj 918 176 r Oct4;
#X obj 942 233 r~ OP4_FM;
#X obj 973 398 r OP4_Index;
#X obj 904 558 ADSR4;
#X obj 994 650 r AM_Bypass4;
#X obj 911 437 catch~ in4;
#X obj 198 715 outlet~;
#X obj 428 715 outlet~;
#X obj 658 715 outlet~;
#X obj 888 715 outlet~;
#X msg 196 51 57;
#X obj 198 377 mtof~;
#X obj 428 349 +~;
#X obj 229 275 PADSR;
#X obj 216 307 *;
#X obj 428 377 mtof~;
#X obj 658 349 +~;
#X obj 658 377 mtof~;
#X obj 888 349 +~;
#X obj 888 377 mtof~;
#X obj 248 302 r PADSR_Depth;
#X obj 216 327 *;
#X obj 254 323 r PADSRto1;
#X obj 446 327 *;
#X obj 676 327 *;
#X obj 906 327 *;
#X obj 484 323 r PADSRto2;
#X obj 714 323 r PADSRto3;
#X obj 944 323 r PADSRto4;
#X obj 459 275 PADSR;
#X obj 446 307 *;
#X obj 478 302 r PADSR_Depth;
#X obj 689 275 PADSR;
#X obj 676 307 *;
#X obj 708 302 r PADSR_Depth;
#X obj 919 275 PADSR;
#X obj 906 307 *;
#X obj 938 302 r PADSR_Depth;
#X connect 0 0 5 0;
#X connect 1 0 3 0;
#X connect 2 0 15 0;
#X connect 3 0 2 0;
#X connect 3 0 35 0;
#X connect 3 0 56 0;
#X connect 3 0 77 0;
#X connect 3 1 9 0;
#X connect 4 0 2 1;
#X connect 5 0 28 0;
#X connect 5 0 30 0;
#X connect 6 1 7 0;
#X connect 7 0 18 0;
#X connect 8 0 6 0;
#X connect 8 0 10 0;
#X connect 8 0 131 0;
#X connect 10 0 0 1;
#X connect 11 0 129 0;
#X connect 12 0 28 1;
#X connect 13 0 19 0;
#X connect 14 0 15 1;
#X connect 15 0 25 0;
#X connect 16 0 14 0;
#X connect 17 0 5 1;
#X connect 18 0 17 0;
#X connect 19 0 0 0;
#X connect 20 0 13 0;
#X connect 21 0 29 1;
#X connect 22 0 23 0;
#X connect 23 0 13 1;
#X connect 24 0 23 1;
#X connect 25 0 29 0;
#X connect 26 0 27 0;
#X connect 27 0 25 1;
#X connect 28 0 124 0;
#X connect 29 0 11 0;
#X connect 30 0 124 0;
#X connect 31 0 30 1;
#X connect 32 0 31 0;
#X connect 33 0 31 0;
#X connect 34 0 36 0;
#X connect 35 0 42 0;
#X connect 36 0 50 0;
#X connect 36 0 52 0;
#X connect 37 1 38 0;
#X connect 38 0 44 0;
#X connect 39 0 37 0;
#X connect 39 0 104 0;
#X connect 39 0 147 0;
#X connect 40 0 45 0;
#X connect 41 0 42 1;
#X connect 42 0 48 0;
#X connect 43 0 36 1;
#X connect 44 0 43 0;
#X connect 45 0 34 0;
#X connect 46 0 40 0;
#X connect 47 0 40 1;
#X connect 48 0 51 0;
#X connect 49 0 48 1;
#X connect 50 0 125 0;
#X connect 51 0 130 0;
#X connect 52 0 125 0;
#X connect 53 0 52 1;
#X connect 54 0 53 0;
#X connect 55 0 57 0;
#X connect 56 0 63 0;
#X connect 57 0 71 0;
#X connect 57 0 73 0;
#X connect 58 1 59 0;
#X connect 59 0 65 0;
#X connect 60 0 58 0;
#X connect 60 0 113 0;
#X connect 60 0 150 0;
#X connect 61 0 66 0;
#X connect 62 0 63 1;
#X connect 63 0 69 0;
#X connect 64 0 57 1;
#X connect 65 0 64 0;
#X connect 66 0 55 0;
#X connect 67 0 61 0;
#X connect 68 0 61 1;
#X connect 69 0 72 0;
#X connect 70 0 69 1;
#X connect 71 0 126 0;
#X connect 72 0 134 0;
#X connect 73 0 126 0;
#X connect 74 0 73 1;
#X connect 75 0 74 0;
#X connect 76 0 78 0;
#X connect 77 0 85 0;
#X connect 78 0 93 0;
#X connect 78 0 95 0;
#X connect 79 1 80 0;
#X connect 80 0 87 0;
#X connect 81 0 79 0;
#X connect 81 0 121 0;
#X connect 81 0 153 0;
#X connect 82 0 93 1;
#X connect 83 0 88 0;
#X connect 84 0 85 1;
#X connect 85 0 91 0;
#X connect 86 0 78 1;
#X connect 87 0 86 0;
#X connect 88 0 76 0;
#X connect 89 0 83 0;
#X connect 90 0 83 1;
#X connect 91 0 94 0;
#X connect 92 0 91 1;
#X connect 93 0 127 0;
#X connect 94 0 136 0;
#X connect 95 0 127 0;
#X connect 96 0 95 1;
#X connect 97 0 96 0;
#X connect 98 0 35 1;
#X connect 99 0 41 0;
#X connect 100 0 49 0;
#X connect 101 0 51 1;
#X connect 102 0 47 1;
#X connect 103 0 47 0;
#X connect 104 0 34 1;
#X connect 105 0 50 1;
#X connect 106 0 53 0;
#X connect 107 0 56 1;
#X connect 108 0 62 0;
#X connect 109 0 70 0;
#X connect 110 0 72 1;
#X connect 111 0 68 1;
#X connect 112 0 68 0;
#X connect 113 0 55 1;
#X connect 114 0 71 1;
#X connect 115 0 74 0;
#X connect 116 0 77 1;
#X connect 117 0 84 0;
#X connect 118 0 92 0;
#X connect 119 0 94 1;
#X connect 120 0 90 1;
#X connect 121 0 76 1;
#X connect 122 0 96 0;
#X connect 123 0 90 0;
#X connect 128 0 2 0;
#X connect 128 0 35 0;
#X connect 129 0 20 0;
#X connect 130 0 133 0;
#X connect 131 0 132 0;
#X connect 132 0 139 0;
#X connect 133 0 46 0;
#X connect 134 0 135 0;
#X connect 135 0 67 0;
#X connect 136 0 137 0;
#X connect 137 0 89 0;
#X connect 138 0 132 1;
#X connect 139 0 11 1;
#X connect 140 0 139 1;
#X connect 141 0 130 1;
#X connect 142 0 134 1;
#X connect 143 0 136 1;
#X connect 144 0 141 1;
#X connect 145 0 142 1;
#X connect 146 0 143 1;
#X connect 147 0 148 0;
#X connect 148 0 141 0;
#X connect 149 0 148 1;
#X connect 150 0 151 0;
#X connect 151 0 142 0;
#X connect 152 0 151 1;
#X connect 153 0 154 0;
#X connect 154 0 143 0;
#X connect 155 0 154 1;
#X restore 201 295 pd FMVoice;
#X obj 201 331 s~ op1;
#X obj 221 351 s~ op2;
#X obj 240 371 s~ op3;
#X obj 259 391 s~ op4;
#X obj 1079 222 pack 0 0 0;
#X obj 1079 255 route 1;
#X obj 1079 286 unpack 0 0;
#X obj 1079 61 random 60;
#X obj 1079 149 makenote;
#X msg 1099 119 127;
#X obj 1079 185 poly 1 1;
#X obj 1079 30 metro 1000;
#X floatatom 1157 175 5 0 0 0 - - -, f 5;
#X obj 1079 90 + 22;
#N canvas 355 137 721 711 Operator_Matrix 0;
#X obj -126 319 r~ op1;
#X obj -127 377 *~;
#X obj -90 601 throw~ in1;
#X obj -109 347 r Level1;
#X obj 101 101 cnv 15 138 138 empty empty empty 20 12 0 14 -233017
-66577 0;
#X obj 116 126 tgl 20 0 empty empty empty 17 7 0 10 -261234 -1 -1 0
1;
#X obj 138 126 tgl 20 0 empty empty empty 17 7 0 10 -162280 -1 -1 0
1;
#X obj 138 148 tgl 20 0 empty empty empty 17 7 0 10 -204288 -1 -1 0
1;
#X obj 160 170 tgl 20 0 empty empty empty 17 7 0 10 -221174 -1 -1 0
1;
#X obj 182 192 tgl 20 0 empty empty empty 17 7 0 10 -257964 -1 -1 0
1;
#X text 121 111 1;
#X obj 160 126 tgl 20 0 empty empty empty 17 7 0 10 -162280 -1 -1 0
1;
#X obj 182 126 tgl 20 0 empty empty empty 17 7 0 10 -162280 -1 -1 0
1;
#X obj 204 126 tgl 20 0 empty empty empty 17 7 0 10 -262144 -1 -1 1
1;
#X obj 358 112 s 1_out;
#X obj 368 132 s 2_out;
#X obj 378 152 s 3_out;
#X obj 388 172 s 4_out;
#X obj 204 148 tgl 20 0 empty empty empty 17 7 0 10 -262144 -1 -1 0
1;
#X obj 204 170 tgl 20 0 empty empty empty 17 7 0 10 -262144 -1 -1 0
1;
#X obj 204 192 tgl 20 0 empty empty empty 17 7 0 10 -262144 -1 -1 0
1;
#X obj 116 148 tgl 20 0 empty empty empty 17 7 0 10 -162280 -1 -1 0
1;
#X obj 160 148 tgl 20 0 empty empty empty 17 7 0 10 -162280 -1 -1 0
1;
#X obj 182 148 tgl 20 0 empty empty empty 17 7 0 10 -162280 -1 -1 0
1;
#X obj 182 170 tgl 20 0 empty empty empty 17 7 0 10 -162280 -1 -1 0
1;
#X obj 160 192 tgl 20 0 empty empty empty 17 7 0 10 -162280 -1 -1 0
1;
#X obj 138 170 tgl 20 0 empty empty empty 17 7 0 10 -162280 -1 -1 0
1;
#X obj 138 192 tgl 20 0 empty empty empty 17 7 0 10 -162280 -1 -1 0
1;
#X obj 116 170 tgl 20 0 empty empty empty 17 7 0 10 -162280 -1 -1 0
1;
#X obj 116 192 tgl 20 0 empty empty empty 17 7 0 10 -162280 -1 -1 0
1;
#X text 143 111 2;
#X text 165 111 3;
#X text 187 111 4;
#X text 204 111 Out;
#X text 107 127 1;
#X text 107 149 2;
#X text 107 171 3;
#X text 107 193 4;
#X obj -127 397 *~;
#X obj -97 427 *~;
#X obj -97 447 *~;
#X obj -96 369 r~ op2;
#X obj -79 397 r Level2;
#X obj -67 477 *~;
#X obj -67 497 *~;
#X obj -66 419 r~ op3;
#X obj -49 447 r Level3;
#X obj -37 527 *~;
#X obj -37 547 *~;
#X obj -36 469 r~ op4;
#X obj -19 497 r Level4;
#X obj 54 319 r~ op1;
#X obj 53 377 *~;
#X obj 71 347 r Level1;
#X obj 53 397 *~;
#X obj 83 427 *~;
#X obj 83 447 *~;
#X obj 84 369 r~ op2;
#X obj 101 397 r Level2;
#X obj 113 477 *~;
#X obj 113 497 *~;
#X obj 114 419 r~ op3;
#X obj 131 447 r Level3;
#X obj 143 527 *~;
#X obj 143 547 *~;
#X obj 144 469 r~ op4;
#X obj 161 497 r Level4;
#X obj 90 601 throw~ in2;
#X obj 234 319 r~ op1;
#X obj 233 377 *~;
#X obj 251 347 r Level1;
#X obj 233 397 *~;
#X obj 263 427 *~;
#X obj 263 447 *~;
#X obj 264 369 r~ op2;
#X obj 281 397 r Level2;
#X obj 293 477 *~;
#X obj 293 497 *~;
#X obj 294 419 r~ op3;
#X obj 311 447 r Level3;
#X obj 323 527 *~;
#X obj 323 547 *~;
#X obj 324 469 r~ op4;
#X obj 341 497 r Level4;
#X obj 414 319 r~ op1;
#X obj 413 377 *~;
#X obj 431 347 r Level1;
#X obj 413 397 *~;
#X obj 443 427 *~;
#X obj 443 447 *~;
#X obj 444 369 r~ op2;
#X obj 461 397 r Level2;
#X obj 473 477 *~;
#X obj 473 497 *~;
#X obj 474 419 r~ op3;
#X obj 491 447 r Level3;
#X obj 503 527 *~;
#X obj 503 547 *~;
#X obj 504 469 r~ op4;
#X obj 521 497 r Level4;
#X obj 269 601 throw~ in3;
#X obj 450 601 throw~ in4;
#X connect 0 0 1 0;
#X connect 1 0 38 0;
#X connect 3 0 1 1;
#X connect 5 0 38 1;
#X connect 6 0 54 1;
#X connect 7 0 56 1;
#X connect 8 0 77 1;
#X connect 9 0 97 1;
#X connect 11 0 71 1;
#X connect 12 0 87 1;
#X connect 13 0 14 0;
#X connect 18 0 15 0;
#X connect 19 0 16 0;
#X connect 20 0 17 0;
#X connect 21 0 40 1;
#X connect 22 0 73 1;
#X connect 23 0 89 1;
#X connect 24 0 93 1;
#X connect 25 0 81 1;
#X connect 26 0 60 1;
#X connect 27 0 64 1;
#X connect 28 0 44 1;
#X connect 29 0 48 1;
#X connect 38 0 2 0;
#X connect 39 0 40 0;
#X connect 40 0 2 0;
#X connect 41 0 39 0;
#X connect 42 0 39 1;
#X connect 43 0 44 0;
#X connect 44 0 2 0;
#X connect 45 0 43 0;
#X connect 46 0 43 1;
#X connect 47 0 48 0;
#X connect 48 0 2 0;
#X connect 49 0 47 0;
#X connect 50 0 47 1;
#X connect 51 0 52 0;
#X connect 52 0 54 0;
#X connect 53 0 52 1;
#X connect 54 0 67 0;
#X connect 55 0 56 0;
#X connect 56 0 67 0;
#X connect 57 0 55 0;
#X connect 58 0 55 1;
#X connect 59 0 60 0;
#X connect 60 0 67 0;
#X connect 61 0 59 0;
#X connect 62 0 59 1;
#X connect 63 0 64 0;
#X connect 64 0 67 0;
#X connect 65 0 63 0;
#X connect 66 0 63 1;
#X connect 68 0 69 0;
#X connect 69 0 71 0;
#X connect 70 0 69 1;
#X connect 71 0 100 0;
#X connect 72 0 73 0;
#X connect 73 0 100 0;
#X connect 74 0 72 0;
#X connect 75 0 72 1;
#X connect 76 0 77 0;
#X connect 77 0 100 0;
#X connect 78 0 76 0;
#X connect 79 0 76 1;
#X connect 80 0 81 0;
#X connect 81 0 100 0;
#X connect 82 0 80 0;
#X connect 83 0 80 1;
#X connect 84 0 85 0;
#X connect 85 0 87 0;
#X connect 86 0 85 1;
#X connect 87 0 101 0;
#X connect 88 0 89 0;
#X connect 89 0 101 0;
#X connect 90 0 88 0;
#X connect 91 0 88 1;
#X connect 92 0 93 0;
#X connect 93 0 101 0;
#X connect 94 0 92 0;
#X connect 95 0 92 1;
#X connect 96 0 97 0;
#X connect 97 0 101 0;
#X connect 98 0 96 0;
#X connect 99 0 96 1;
#X coords 0 -1 1 1 140 140 2 100 100;
#X restore 853 -1 pd Operator_Matrix;
#N canvas 0 50 1276 717 Output 0;
#X obj 474 114 *~;
#X obj 475 6 r~ op1;
#X obj 82 461 *~;
#X obj 100 115 vsl 42 186 0.01 1 1 0 empty empty Output 0 -9 0 10 -261234
-1 -1 13900 1;
#X obj 310 338 tgl 15 0 empty empty empty 17 7 0 10 -262144 -1 -1 1
1;
#X obj 310 364 metro 100;
#X obj 310 394 tabwrite~ output;
#X obj 310 311 loadbang;
#X obj 489 34 r Level1;
#X obj 534 93 r 1_out;
#X obj 81 518 dac~;
#X obj 100 372 line~;
#X msg 100 346 \$1 5;
#X obj 489 90 line~;
#X msg 489 64 \$1 5;
#X obj 584 477 s~ del_in;
#X obj 72 432 AAF;
#X obj 82 481 hip~ 1;
#X obj 474 134 *~;
#X obj 534 224 *~;
#X obj 549 200 line~;
#X msg 549 174 \$1 5;
#X obj 534 244 *~;
#X obj 535 116 r~ op2;
#X obj 549 144 r Level2;
#X obj 594 203 r 2_out;
#X obj 624 114 *~;
#X obj 639 90 line~;
#X msg 639 64 \$1 5;
#X obj 624 134 *~;
#X obj 684 224 *~;
#X obj 699 200 line~;
#X msg 699 174 \$1 5;
#X obj 684 244 *~;
#X obj 625 6 r~ op3;
#X obj 639 34 r Level3;
#X obj 684 93 r 3_out;
#X obj 685 116 r~ op4;
#X obj 699 144 r Level4;
#X obj 744 203 r 4_out;
#X obj 12 397 r~ verb_L;
#X obj 142 461 *~;
#X obj 132 432 AAF;
#X obj 142 481 hip~ 1;
#X obj 142 397 r~ verb_R;
#X obj 425 322 clip~ -1 1;
#X obj 100 315 - 0.01;
#X obj 738 381 *~;
#X obj 761 301 hsl 128 15 0.01 10000 1 0 empty empty empty -2 -8 0
10 -262144 -1 -1 9700 1;
#X obj 758 321 - 0.01;
#X msg 758 341 \$1 10;
#X obj 758 361 line;
#X obj 738 401 cyclone/tanh~;
#X obj 738 511 *~;
#X obj 761 431 hsl 128 15 0.01 1.01 1 0 empty empty empty -2 -8 0 10
-262144 -1 -1 9800 1;
#X obj 758 451 - 0.01;
#X msg 758 471 \$1 10;
#X obj 758 491 line;
#X connect 0 0 18 0;
#X connect 1 0 0 0;
#X connect 2 0 17 0;
#X connect 3 0 46 0;
#X connect 4 0 5 0;
#X connect 5 0 6 0;
#X connect 7 0 4 0;
#X connect 8 0 14 0;
#X connect 9 0 18 1;
#X connect 11 0 2 1;
#X connect 11 0 41 1;
#X connect 12 0 11 0;
#X connect 13 0 0 1;
#X connect 14 0 13 0;
#X connect 16 0 2 0;
#X connect 17 0 10 0;
#X connect 18 0 45 0;
#X connect 18 0 15 0;
#X connect 19 0 22 0;
#X connect 20 0 19 1;
#X connect 21 0 20 0;
#X connect 22 0 45 0;
#X connect 22 0 15 0;
#X connect 23 0 19 0;
#X connect 24 0 21 0;
#X connect 25 0 22 1;
#X connect 26 0 29 0;
#X connect 27 0 26 1;
#X connect 28 0 27 0;
#X connect 29 0 45 0;
#X connect 29 0 15 0;
#X connect 30 0 33 0;
#X connect 31 0 30 1;
#X connect 32 0 31 0;
#X connect 33 0 45 0;
#X connect 33 0 15 0;
#X connect 34 0 26 0;
#X connect 35 0 28 0;
#X connect 36 0 29 1;
#X connect 37 0 30 0;
#X connect 38 0 32 0;
#X connect 39 0 33 1;
#X connect 40 0 16 0;
#X connect 41 0 43 0;
#X connect 42 0 41 0;
#X connect 43 0 10 1;
#X connect 44 0 42 0;
#X connect 45 0 6 0;
#X connect 46 0 12 0;
#X connect 47 0 52 0;
#X connect 48 0 49 0;
#X connect 49 0 50 0;
#X connect 50 0 51 0;
#X connect 51 0 47 1;
#X connect 52 0 53 0;
#X connect 53 0 15 0;
#X connect 54 0 55 0;
#X connect 55 0 56 0;
#X connect 56 0 57 0;
#X connect 57 0 53 1;
#X coords 0 -1 1 1 42 204 2 100 100;
#X restore 1190 371 pd Output;
#N canvas 0 50 1268 722 Operator1 0;
#X obj 229 264 - 10;
#X obj 269 264 - 10;
#X obj 349 263 - 10;
#X obj 304 263 - 0.01;
#X obj 229 293 s a1;
#X obj 269 293 s d1;
#X obj 304 293 s s1;
#X obj 349 293 s r1;
#X obj 249 3 loadbang;
#X obj 127 36 loadbang;
#X msg 127 64 0;
#X obj 399 353 s Level1;
#X obj 101 101 cnv 15 283 138 empty empty empty 20 12 0 14 -233017
-66577 0;
#X obj 228 132 vsl 15 100 10 10010 1 0 empty empty A 0 -9 0 10 -162280
-1 -1 0 1;
#X obj 258 132 vsl 15 100 10 10010 1 0 empty empty D 0 -9 0 10 -162280
-1 -1 9900 1;
#X obj 288 132 vsl 15 100 0.01 1 1 0 empty empty S 0 -9 0 10 -162280
-1 -1 8410 1;
#X obj 318 132 vsl 15 100 10 10010 1 0 empty empty R 0 -9 0 10 -162280
-1 -1 5634 1;
#X obj 348 132 vsl 15 100 0.01 1 1 0 empty empty Level 0 -9 0 10 -261234
-1 -1 8410 1;
#X text 232 100 Volume Envelope;
#X obj 101 101 cnv 15 59 59 empty empty OP1 10 30 1 20 -258374 -1 0
;
#X msg 321 29 10010;
#X msg 286 30 0.5;
#X msg 249 30 510;
#X obj 374 101 bng 10 250 50 0 empty empty empty 17 7 0 10 -258374
-1 -1;
#X msg 399 293 \$1 10;
#X obj 399 323 line;
#X msg 93 64 10;
#X obj 198 132 vsl 15 100 -127 127 0 0 Fine1 empty Fine -4 -9 0 10
-1 -162280 -1 4950 1;
#X obj 168 132 vsl 15 100 -12 12 0 0 Coarse1 empty Crs -2 -9 0 10 -1
-162280 -1 4950 1;
#X text 170 100 Tuning;
#X obj 399 263 - 0.01;
#X obj 108 182 vsl 15 50 1 20 0 0 OP1_Index empty Index 0 -9 0 10 -162280
-1 -1 2321 1;
#X obj 138 195 vradio 10 1 0 4 empty empty Oct 0 -8 0 10 -162280 -1
-1 3;
#X text 149 191 4;
#X text 149 221 1;
#X text 149 211 2;
#X text 149 201 3;
#X obj 138 267 * -1;
#X msg 163 63 1;
#X obj 138 307 s Oct1;
#X obj 138 287 + 1;
#X connect 0 0 4 0;
#X connect 1 0 5 0;
#X connect 2 0 7 0;
#X connect 3 0 6 0;
#X connect 8 0 21 0;
#X connect 8 0 22 0;
#X connect 8 0 20 0;
#X connect 9 0 10 0;
#X connect 9 0 26 0;
#X connect 9 0 38 0;
#X connect 10 0 28 0;
#X connect 10 0 27 0;
#X connect 13 0 0 0;
#X connect 14 0 1 0;
#X connect 15 0 3 0;
#X connect 16 0 2 0;
#X connect 17 0 30 0;
#X connect 20 0 14 0;
#X connect 21 0 15 0;
#X connect 21 0 17 0;
#X connect 22 0 16 0;
#X connect 23 0 26 0;
#X connect 23 0 10 0;
#X connect 23 0 22 0;
#X connect 23 0 21 0;
#X connect 23 0 20 0;
#X connect 24 0 25 0;
#X connect 25 0 11 0;
#X connect 26 0 31 0;
#X connect 26 0 13 0;
#X connect 30 0 24 0;
#X connect 32 0 37 0;
#X connect 37 0 40 0;
#X connect 38 0 32 0;
#X connect 40 0 39 0;
#X coords 0 -1 1 1 285 140 2 100 100;
#X restore 568 -1 pd Operator1;
#X msg 36 384 \; pd dsp 1;
#X msg 36 427 \; pd dsp 0;
#N canvas 0 50 1276 717 PADSR 0;
#X obj 101 101 cnv 15 198 138 empty empty empty 20 12 0 14 -233017
-66577 0;
#X obj 178 132 vsl 15 100 10 10010 1 0 empty empty A 0 -9 0 10 -162280
-1 -1 0 1;
#X obj 208 132 vsl 15 100 10 10010 1 0 empty empty D 0 -9 0 10 -162280
-1 -1 5634 1;
#X obj 238 132 vsl 15 100 0.01 1 1 0 empty empty S 0 -9 0 10 -162280
-1 -1 0 1;
#X obj 268 132 vsl 15 100 10 10010 1 0 empty empty R 0 -9 0 10 -162280
-1 -1 5634 1;
#X obj 99 278 - 10;
#X obj 139 278 - 10;
#X obj 229 277 - 10;
#X obj 184 277 - 0.01;
#X text 180 99 Pitch Envelope;
#X obj 99 307 s Pa;
#X obj 139 307 s Pd;
#X obj 184 307 s Ps;
#X obj 229 307 s Pr;
#X obj 179 13 loadbang;
#X msg 179 40 510;
#X msg 147 41 0;
#X obj 111 185 tgl 20 0 empty empty empty 17 7 0 10 -261234 -1 -1 0
1;
#X obj 141 185 tgl 20 0 empty empty empty 17 7 0 10 -204288 -1 -1 0
1;
#X obj 111 215 tgl 20 0 empty empty empty 17 7 0 10 -221174 -1 -1 0
1;
#X obj 141 215 tgl 20 0 empty empty empty 17 7 0 10 -257964 -1 -1 0
1;
#X obj 122 122 vsl 30 50 -24 24 0 0 PADSR_Depth empty Depth 0 -9 0
10 -162280 -1 -1 2450 1;
#X obj 289 101 bng 10 250 50 0 empty empty empty 17 7 0 10 -162280
-1 -1;
#X obj 151 388 s PADSRto1;
#X obj 161 408 s PADSRto2;
#X obj 171 428 s PADSRto3;
#X obj 181 448 s PADSRto4;
#X connect 1 0 5 0;
#X connect 2 0 6 0;
#X connect 3 0 8 0;
#X connect 4 0 7 0;
#X connect 5 0 10 0;
#X connect 6 0 11 0;
#X connect 7 0 13 0;
#X connect 8 0 12 0;
#X connect 14 0 15 0;
#X connect 14 0 16 0;
#X connect 15 0 2 0;
#X connect 15 0 4 0;
#X connect 16 0 21 0;
#X connect 17 0 23 0;
#X connect 18 0 24 0;
#X connect 19 0 25 0;
#X connect 20 0 26 0;
#X connect 22 0 16 0;
#X connect 22 0 15 0;
#X coords 0 -1 1 1 200 140 2 100 100;
#X restore 368 419 pd PADSR;
#X msg 1140 120 500;
#N canvas 333 114 942 471 oscilloscope 0;
#X obj 101 101 cnv 15 200 140 empty empty empty 20 12 0 14 -233017
-66577 0;
#N canvas 0 50 450 300 (subpatch) 0;
#X array output 100 float 1;
#A 0 0 0 0 0 0 0 0 0 0 0 0 0 0 0 0 0 0 0 0 0 0 0 0 0 0 0 0 0 0 0 0
0 0 0 0 0 0 0 0 0 0 0 0 0 0 0 0 0 0 0 0 0 0 0 0 0 0 0 0 0 0 0 0 0 0
0 0 0 0 0 0 0 0 0 0 0 0 0 0 0 0 0 0 0 0 0 0 0 0 0 0 0 0 0 0 0 0 0 0
0;
#X coords 0 1 99 -1 200 140 2 0 0;
#X restore 100 100 graph;
#X coords 0 -1 1 1 200 140 2 100 100;
#X restore 853 419 pd oscilloscope;
#X obj 115 353 loadbang;
#X text 95 397 <--Audio On;
#X text 95 441 <-- Audio Off;
#X obj 1042 343 spigot;
#X obj 1075 315 tgl 15 0 empty empty empty 17 7 0 10 -262144 -1 -1
0 1;
#X obj 1042 372 s rng;
#X obj 1064 -16 loadbang;
#X text 1035 -38 Random Note Generator;
#X text 1099 317 <-- send random notes;
#X text 854 277 <-- Reset;
#X obj 214 -26 notein;
#X obj 214 11 poly 1 1;
#X obj 214 227 route 1;
#X obj 310 44 - 127;
#X obj 310 71 * -1;
#X obj 295 102 +;
#X obj 295 128 clip 0 127;
#X obj 268 71 sel 0;
#X obj 262 100 t b;
#X msg 255 128 0;
#X obj 356 30 loadbang;
#X obj 214 188 pack 0 0 0;
#X obj 121 189 pack 0 0;
#X obj 93 151 r rng;
#N canvas 13 50 1276 717 reverb 0;
#X obj 101 101 cnv 15 98 138 empty empty empty 20 12 0 14 -233017 -66577
0;
#X obj 821 388 *~;
#X obj 1002 332 *~;
#X msg 1017 282 \$1 50;
#X msg 1084 430 \$1 50;
#X obj 1069 483 *~;
#X obj 143 133 vsl 15 100 0.01 1.2 1 0 empty empty Fdbk -4 -9 0 10
-162280 -1 -1 0 1;
#X obj 174 133 vsl 15 100 0 1 0 0 empty empty Mix -2 -9 0 10 -162280
-1 -1 0 1;
#X obj 111 133 vsl 15 100 10 2000 0 0 empty empty Time -5 -9 0 10 -162280
-1 -1 0 1;
#X obj 189 101 bng 10 250 50 0 empty empty empty 17 7 0 10 -162280
-1 -1;
#X obj 796 257 r~ del_in;
#X text 103 100 Echo;
#X obj 834 458 s~ verb_in;
#X obj 1084 456 line~;
#X obj 1017 308 line~;
#X obj 1001 205 vd~ doggo;
#X obj 1084 404 - 0.01;
#X obj 1002 224 lop~ 1000;
#X obj 836 340 *~ -1;
#X obj 836 365 +~ 1;
#X obj 1069 503 clip~ -1 1;
#X obj 1002 177 lop~ 5;
#X obj 795 291 delwrite~ doggo 2100;
#X connect 1 0 12 0;
#X connect 2 0 12 0;
#X connect 3 0 14 0;
#X connect 4 0 13 0;
#X connect 5 0 20 0;
#X connect 6 0 16 0;
#X connect 7 0 3 0;
#X connect 8 0 21 0;
#X connect 10 0 1 0;
#X connect 10 0 22 0;
#X connect 13 0 5 1;
#X connect 14 0 2 1;
#X connect 14 0 18 0;
#X connect 15 0 17 0;
#X connect 16 0 4 0;
#X connect 17 0 2 0;
#X connect 17 0 5 0;
#X connect 18 0 19 0;
#X connect 19 0 1 1;
#X connect 20 0 22 0;
#X connect 21 0 15 0;
#X coords 0 -1 1 1 100 140 1 100 100;
#X restore 853 139 pd reverb;
#N canvas 0 50 1916 998 dropbox 0;
#X obj 153 421 cnv 15 60 60 empty empty OP4 10 30 1 20 -262086 -1 0
;
#X obj 321 421 bng 10 250 50 0 empty empty empty 17 7 0 10 -262086
-1 -1;
#X obj 299 452 vsl 15 100 0.01 1 1 0 empty empty Level 0 -9 0 10 -257964
-1 -1 0 1;
#X obj 159 232 cnv 15 60 60 empty empty OP3 10 30 1 20 -3265 -1 0;
#X obj 285 264 vsl 15 100 0.01 1 1 0 empty empty Level 0 -9 0 10 -221174
-1 -1 0 1;
#X obj 307 233 bng 10 250 50 0 empty empty empty 17 7 0 10 -3265 -1
-1;
#X obj 270 123 vsl 15 100 0.01 1 1 0 empty empty Level 0 -9 0 10 -204288
-1 -1 0 1;
#X obj 292 92 bng 10 250 50 0 empty empty empty 17 7 0 10 -22336 -1
-1;
#X obj 155 92 cnv 15 60 60 empty empty OP2 10 30 1 20 -22336 -1 0;
#X restore 161 536 pd dropbox;
#N canvas 0 50 1916 998 LFO1 0;
#X obj 278 635 s~ OP1_AM;
#X obj 608 79 vradio 10 1 0 5 empty empty empty 0 -8 0 10 -162280 -1
-1 1;
#X text 623 74 Sine;
#X text 623 84 Sqr;
#X text 623 94 Saw;
#X text 623 104 Ramp;
#X text 623 114 Rndm;
#N canvas 0 50 1916 998 LFO_actual 0;
#X msg 1234 272 0;
#X msg 1264 272 0;
#X obj 1252 309 tgl 15 0 empty empty empty 17 7 0 10 -262144 -1 -1
0 1;
#X obj 619 284 osc~ 1;
#X obj 855 67 / 127;
#X obj 855 132 * 20;
#X obj 993 284 phasor~;
#X msg 1144 272 0;
#X obj 1132 309 tgl 15 0 empty empty empty 17 7 0 10 -262144 -1 -1
0 1;
#X obj 1132 195 route 0 1 2 3 4;
#X msg 1174 272 0;
#X obj 1162 309 tgl 15 0 empty empty empty 17 7 0 10 -262144 -1 -1
1 1;
#X msg 1204 272 0;
#X obj 1192 309 tgl 15 0 empty empty empty 17 7 0 10 -262144 -1 -1
0 1;
#X obj 1222 309 tgl 15 0 empty empty empty 17 7 0 10 -262144 -1 -1
0 1;
#X obj 925 284 phasor~;
#X obj 686 284 phasor~;
#X obj 1051 248 metro;
#X obj 1051 303 / 12;
#X obj 1051 370 sig~;
#X obj 1051 274 random 12;
#X obj 1030 542 outlet~;
#X obj 1129 156 inlet;
#X obj 1029 501 lop~ 40;
#X obj 618 365 *~;
#X obj 686 362 *~;
#X obj 924 361 *~;
#X obj 993 361 *~;
#X obj 1051 390 *~;
#X obj 960 218 loadbang;
#X obj 855 46 inlet;
#X obj 1030 219 expr 1000/$f1;
#X obj 686 309 expr~ (($v1 < 0.5) - 0.5) * 2;
#X obj 993 304 -~ 0.5;
#X obj 993 324 *~ 2;
#X obj 925 305 -~ 0.5;
#X obj 925 325 *~ -2;
#X obj 1051 344 * 2;
#X obj 1051 324 - 0.5;
#X obj 730 147 *;
#X obj 790 147 *;
#X obj 782 45 r hilo;
#X obj 808 98 * -1;
#X obj 808 118 + 1;
#X obj 705 86 sel 0 1;
#X connect 0 0 2 0;
#X connect 0 0 8 0;
#X connect 0 0 11 0;
#X connect 0 0 13 0;
#X connect 1 0 8 0;
#X connect 1 0 11 0;
#X connect 1 0 13 0;
#X connect 1 0 14 0;
#X connect 2 0 28 1;
#X connect 3 0 24 0;
#X connect 4 0 39 0;
#X connect 4 0 40 0;
#X connect 5 0 3 0;
#X connect 5 0 16 0;
#X connect 5 0 15 0;
#X connect 5 0 6 0;
#X connect 5 0 31 0;
#X connect 6 0 33 0;
#X connect 7 0 11 0;
#X connect 7 0 13 0;
#X connect 7 0 14 0;
#X connect 7 0 2 0;
#X connect 8 0 24 1;
#X connect 9 0 8 0;
#X connect 9 0 7 0;
#X connect 9 1 11 0;
#X connect 9 1 10 0;
#X connect 9 2 13 0;
#X connect 9 2 12 0;
#X connect 9 3 14 0;
#X connect 9 3 0 0;
#X connect 9 4 2 0;
#X connect 9 4 1 0;
#X connect 10 0 8 0;
#X connect 10 0 13 0;
#X connect 10 0 14 0;
#X connect 10 0 2 0;
#X connect 11 0 25 1;
#X connect 12 0 8 0;
#X connect 12 0 11 0;
#X connect 12 0 14 0;
#X connect 12 0 2 0;
#X connect 13 0 26 1;
#X connect 14 0 27 1;
#X connect 15 0 35 0;
#X connect 16 0 32 0;
#X connect 17 0 20 0;
#X connect 18 0 38 0;
#X connect 19 0 28 0;
#X connect 20 0 18 0;
#X connect 22 0 9 0;
#X connect 23 0 21 0;
#X connect 24 0 23 0;
#X connect 25 0 23 0;
#X connect 26 0 23 0;
#X connect 27 0 23 0;
#X connect 28 0 23 0;
#X connect 29 0 17 0;
#X connect 30 0 4 0;
#X connect 31 0 17 1;
#X connect 32 0 25 0;
#X connect 33 0 34 0;
#X connect 34 0 27 0;
#X connect 35 0 36 0;
#X connect 36 0 26 0;
#X connect 37 0 19 0;
#X connect 38 0 37 0;
#X connect 39 0 3 0;
#X connect 39 0 16 0;
#X connect 39 0 15 0;
#X connect 39 0 6 0;
#X connect 39 0 31 0;
#X connect 40 0 5 0;
#X connect 41 0 42 0;
#X connect 41 0 39 1;
#X connect 41 0 44 0;
#X connect 42 0 43 0;
#X connect 43 0 40 1;
#X connect 44 0 5 0;
#X connect 44 1 39 0;
#X restore 902 190 pd LFO_actual;
#X obj 297 590 r AM1_1;
#X obj 911 230 s~ AM_Out1;
#X obj 157 508 r~ AM_Out1;
#X obj 901 250 s~ FM_Out1;
#X obj 891 270 s~ IM_Out1;
#X obj 1289 35 r~ FM_Out1;
#X obj 1403 166 r FM1_1;
#X obj 1386 210 s~ OP1_FM;
#X obj 537 115 tgl 20 0 empty empty empty 17 7 0 10 -261234 -1 -1 0
1;
#X obj 567 115 tgl 20 0 empty empty empty 17 7 0 10 -204288 -1 -1 0
1;
#X obj 537 145 tgl 20 0 empty empty empty 17 7 0 10 -221174 -1 -1 0
1;
#X obj 567 145 tgl 20 0 empty empty empty 17 7 0 10 -257964 -1 -1 0
1;
#X obj 736 80 vsl 15 100 0 1 0 0 empty empty Depth 0 -9 0 10 -162280
-1 -1 0 1;
#X obj 686 80 vsl 15 100 0 127 0 0 empty empty Rate 0 -9 0 10 -162280
-1 -1 0 1;
#X obj 1385 189 *~;
#X obj 1347 263 *~;
#X obj 1307 343 *~;
#X obj 1267 423 *~;
#X obj 1365 240 r FM1_2;
#X obj 1348 284 s~ OP2_FM;
#X obj 1325 320 r FM1_3;
#X obj 1285 400 r FM1_4;
#X obj 1268 444 s~ OP4_FM;
#X obj 1308 364 s~ OP3_FM;
#X obj 546 614 hsl 128 15 0 127 0 0 empty empty empty -2 -8 0 10 -262144
-1 -1 0 1;
#X floatatom 543 634 5 0 0 0 - - -, f 5;
#X floatatom 543 671 5 0 0 0 - - -, f 5;
#X obj 543 652 expr 10 / (14.34 * log(128/$f1 + 1));
#X obj 279 613 *~;
#X obj 249 683 *~;
#X obj 267 660 r AM1_2;
#X obj 248 705 s~ OP2_AM;
#X obj 209 753 *~;
#X obj 179 823 *~;
#X obj 227 730 r AM1_3;
#X obj 197 800 r AM1_4;
#X obj 178 845 s~ OP4_AM;
#X obj 208 775 s~ OP3_AM;
#X obj 1323 134 *~ 12;
#X obj 608 153 vradio 15 1 0 2 empty empty empty 0 -8 0 10 -162280
-1 -1 1;
#X text 628 152 Amp;
#X text 628 167 Freq;
#X obj 491 22 loadbang;
#X obj 119 289 spigot;
#X obj 289 289 spigot;
#X msg 70 348 0;
#X obj 61 375 tgl 15 0 empty empty empty 17 7 0 10 -262144 -1 -1 0
1;
#X msg 110 348 0;
#X obj 101 375 tgl 15 0 empty empty empty 17 7 0 10 -262144 -1 -1 0
1;
#X obj 45 311 sel 0;
#X obj 371 63 sel 1;
#X msg 240 348 0;
#X obj 231 375 tgl 15 0 empty empty empty 17 7 0 10 -262144 -1 -1 0
1;
#X msg 280 348 0;
#X obj 271 375 tgl 15 0 empty empty empty 17 7 0 10 -262144 -1 -1 0
1;
#X obj 215 311 sel 0;
#X obj 459 289 spigot;
#X obj 629 289 spigot;
#X msg 410 348 0;
#X obj 401 375 tgl 15 0 empty empty empty 17 7 0 10 -262144 -1 -1 0
1;
#X msg 450 348 0;
#X obj 441 375 tgl 15 0 empty empty empty 17 7 0 10 -262144 -1 -1 0
1;
#X obj 385 311 sel 0;
#X msg 580 348 0;
#X obj 571 375 tgl 15 0 empty empty empty 17 7 0 10 -262144 -1 -1 0
1;
#X msg 620 348 0;
#X obj 611 375 tgl 15 0 empty empty empty 17 7 0 10 -262144 -1 -1 0
1;
#X obj 555 311 sel 0;
#X obj 95 311 sel 0 1;
#X obj 265 311 sel 0 1;
#X obj 435 311 sel 0 1;
#X obj 605 311 sel 0 1;
#X obj 101 395 s FM1_1;
#X obj 41 395 s AM1_1;
#X obj 211 395 s AM1_2;
#X obj 271 395 s FM1_2;
#X obj 381 395 s AM1_3;
#X obj 441 395 s FM1_3;
#X obj 551 395 s AM1_4;
#X obj 611 395 s FM1_4;
#X msg 365 106 1;
#X msg 402 108 0;
#X obj 714 93 vradio 10 1 0 2 hilo empty empty 0 -8 0 10 -162280 -1
-1 1;
#X text 711 78 hi;
#X text 710 113 lo;
#X obj 156 558 *~;
#X obj 156 578 +~;
#X obj 220 566 expr 1-\$1;
#X obj 746 205 s AM_Depth;
#X obj 756 225 s FM_Depth;
#X obj 174 535 r AM_Depth;
#X obj 41 466 s AM_Bypass1;
#X obj 41 423 * -1;
#X obj 41 443 + 1;
#X obj 211 423 * -1;
#X obj 211 443 + 1;
#X obj 381 423 * -1;
#X obj 381 443 + 1;
#X obj 551 423 * -1;
#X obj 551 443 + 1;
#X obj 211 466 s AM_Bypass2;
#X obj 381 466 s AM_Bypass3;
#X obj 551 466 s AM_Bypass4;
#X obj 1316 88 *~;
#X obj 1334 65 r FM_Depth;
#X connect 1 0 7 1;
#X connect 7 0 9 0;
#X connect 7 0 11 0;
#X connect 7 0 12 0;
#X connect 8 0 36 1;
#X connect 10 0 93 0;
#X connect 13 0 111 0;
#X connect 14 0 22 1;
#X connect 16 0 51 1;
#X connect 16 0 57 0;
#X connect 16 0 58 0;
#X connect 17 0 52 1;
#X connect 17 0 58 0;
#X connect 17 0 63 0;
#X connect 18 0 64 1;
#X connect 18 0 58 0;
#X connect 18 0 70 0;
#X connect 19 0 65 1;
#X connect 19 0 58 0;
#X connect 19 0 75 0;
#X connect 20 0 96 0;
#X connect 20 0 97 0;
#X connect 21 0 7 0;
#X connect 22 0 15 0;
#X connect 23 0 27 0;
#X connect 24 0 31 0;
#X connect 25 0 30 0;
#X connect 26 0 23 1;
#X connect 28 0 24 1;
#X connect 29 0 25 1;
#X connect 32 0 33 0;
#X connect 33 0 35 0;
#X connect 35 0 34 0;
#X connect 36 0 0 0;
#X connect 37 0 39 0;
#X connect 38 0 37 1;
#X connect 40 0 45 0;
#X connect 41 0 44 0;
#X connect 42 0 40 1;
#X connect 43 0 41 1;
#X connect 46 0 23 0;
#X connect 46 0 24 0;
#X connect 46 0 25 0;
#X connect 46 0 22 0;
#X connect 47 0 51 0;
#X connect 47 0 52 0;
#X connect 47 0 64 0;
#X connect 47 0 65 0;
#X connect 50 0 1 0;
#X connect 50 0 47 0;
#X connect 51 0 76 0;
#X connect 52 0 77 0;
#X connect 53 0 54 0;
#X connect 54 0 81 0;
#X connect 54 0 100 0;
#X connect 55 0 56 0;
#X connect 56 0 80 0;
#X connect 57 0 53 0;
#X connect 57 0 55 0;
#X connect 58 0 88 0;
#X connect 58 0 89 0;
#X connect 59 0 60 0;
#X connect 60 0 82 0;
#X connect 60 0 102 0;
#X connect 61 0 62 0;
#X connect 62 0 83 0;
#X connect 63 0 59 0;
#X connect 63 0 61 0;
#X connect 64 0 78 0;
#X connect 65 0 79 0;
#X connect 66 0 67 0;
#X connect 67 0 84 0;
#X connect 67 0 104 0;
#X connect 68 0 69 0;
#X connect 69 0 85 0;
#X connect 70 0 66 0;
#X connect 70 0 68 0;
#X connect 71 0 72 0;
#X connect 72 0 86 0;
#X connect 72 0 106 0;
#X connect 73 0 74 0;
#X connect 74 0 87 0;
#X connect 75 0 71 0;
#X connect 75 0 73 0;
#X connect 76 0 54 0;
#X connect 76 0 55 0;
#X connect 76 1 53 0;
#X connect 76 1 56 0;
#X connect 76 2 53 0;
#X connect 76 2 55 0;
#X connect 77 0 60 0;
#X connect 77 0 61 0;
#X connect 77 1 59 0;
#X connect 77 1 62 0;
#X connect 77 2 59 0;
#X connect 77 2 61 0;
#X connect 78 0 67 0;
#X connect 78 0 68 0;
#X connect 78 1 66 0;
#X connect 78 1 69 0;
#X connect 78 2 66 0;
#X connect 78 2 68 0;
#X connect 79 0 72 0;
#X connect 79 0 73 0;
#X connect 79 1 71 0;
#X connect 79 1 74 0;
#X connect 79 2 71 0;
#X connect 79 2 73 0;
#X connect 88 0 47 0;
#X connect 89 0 47 0;
#X connect 93 0 94 0;
#X connect 94 0 41 0;
#X connect 94 0 40 0;
#X connect 94 0 37 0;
#X connect 94 0 36 0;
#X connect 95 0 94 1;
#X connect 98 0 93 1;
#X connect 98 0 95 0;
#X connect 100 0 101 0;
#X connect 101 0 99 0;
#X connect 102 0 103 0;
#X connect 103 0 108 0;
#X connect 104 0 105 0;
#X connect 105 0 109 0;
#X connect 106 0 107 0;
#X connect 107 0 110 0;
#X connect 111 0 46 0;
#X connect 112 0 111 1;
#X restore 291 461 pd LFO1;
#X obj 1112 343 spigot;
#X obj 1112 372 s rng2;
#X obj 153 151 r rng2;
#X obj 1006 9 t b b b b;
#X obj 399 73 vsl 15 128 0 127 0 0 empty empty Velocity 0 -9 0 10 -162280
-1 -1 0 1;
#N canvas 0 50 1268 722 Operator1 0;
#X obj 229 264 - 10;
#X obj 269 264 - 10;
#X obj 349 263 - 10;
#X obj 304 263 - 0.01;
#X obj 249 3 loadbang;
#X obj 127 36 loadbang;
#X msg 127 64 0;
#X obj 101 101 cnv 15 283 138 empty empty empty 20 12 0 14 -233017
-66577 0;
#X obj 228 132 vsl 15 100 10 10010 1 0 empty empty A 0 -9 0 10 -162280
-1 -1 0 1;
#X obj 258 132 vsl 15 100 10 10010 1 0 empty empty D 0 -9 0 10 -162280
-1 -1 9900 1;
#X obj 288 132 vsl 15 100 0.01 1 1 0 empty empty S 0 -9 0 10 -162280
-1 -1 8410 1;
#X obj 318 132 vsl 15 100 10 10010 1 0 empty empty R 0 -9 0 10 -162280
-1 -1 5634 1;
#X text 232 100 Volume Envelope;
#X msg 321 29 10010;
#X msg 286 30 0.5;
#X msg 249 30 510;
#X msg 399 293 \$1 10;
#X obj 399 323 line;
#X msg 93 64 10;
#X obj 198 132 vsl 15 100 -127 127 0 0 Fine2 empty Fine -4 -9 0 10
-1 -162280 -1 4950 1;
#X obj 168 132 vsl 15 100 -12 12 0 0 Coarse2 empty Crs -2 -9 0 10 -1
-162280 -1 4950 1;
#X text 170 100 Tuning;
#X obj 399 263 - 0.01;
#X obj 108 182 vsl 15 50 1 20 0 0 OP2_Index empty Index 0 -9 0 10 -162280
-1 -1 2321 1;
#X obj 138 195 vradio 10 1 0 4 empty empty Oct 0 -8 0 10 -162280 -1
-1 1;
#X text 149 191 4;
#X text 149 221 1;
#X text 149 211 2;
#X text 149 201 3;
#X obj 138 267 * -1;
#X msg 163 63 1;
#X obj 138 287 + 1;
#X obj 138 307 s Oct2;
#X obj 229 293 s a2;
#X obj 269 293 s d2;
#X obj 304 293 s s2;
#X obj 349 293 s r2;
#X obj 399 353 s Level2;
#X obj 352 132 vsl 15 100 0.01 1 1 0 empty empty Level 0 -9 0 10 -204288
-1 -1 8410 1;
#X obj 374 101 bng 10 250 50 0 empty empty empty 17 7 0 10 -22336 -1
-1;
#X obj 101 101 cnv 15 60 60 empty empty OP2 10 30 1 20 -22336 -1 0
;
#X connect 0 0 33 0;
#X connect 1 0 34 0;
#X connect 2 0 36 0;
#X connect 3 0 35 0;
#X connect 4 0 14 0;
#X connect 4 0 15 0;
#X connect 4 0 13 0;
#X connect 5 0 6 0;
#X connect 5 0 18 0;
#X connect 5 0 30 0;
#X connect 6 0 20 0;
#X connect 6 0 19 0;
#X connect 8 0 0 0;
#X connect 9 0 1 0;
#X connect 10 0 3 0;
#X connect 11 0 2 0;
#X connect 13 0 9 0;
#X connect 14 0 10 0;
#X connect 14 0 38 0;
#X connect 15 0 11 0;
#X connect 16 0 17 0;
#X connect 17 0 37 0;
#X connect 18 0 23 0;
#X connect 18 0 8 0;
#X connect 22 0 16 0;
#X connect 24 0 29 0;
#X connect 29 0 31 0;
#X connect 30 0 24 0;
#X connect 31 0 32 0;
#X connect 38 0 22 0;
#X connect 39 0 18 0;
#X connect 39 0 6 0;
#X connect 39 0 30 0;
#X connect 39 0 15 0;
#X connect 39 0 14 0;
#X connect 39 0 13 0;
#X coords 0 -1 1 1 285 140 2 100 100;
#X restore 568 139 pd Operator1;
#N canvas 13 50 1276 717 reverb 0;
#X obj 101 101 cnv 15 98 138 empty empty empty 20 12 0 14 -233017 -66577
0;
#X obj 143 133 vsl 15 100 0 100 0 0 empty empty Tone -4 -9 0 10 -162280
-1 -1 0 1;
#X obj 174 133 vsl 15 100 0 1 0 0 empty empty Mix -2 -9 0 10 -162280
-1 -1 0 1;
#X obj 111 133 vsl 15 100 80 100 0 0 empty empty Decay -9 -9 0 10 -162280
-1 -1 3900 1;
#X obj 189 101 bng 10 250 50 0 empty empty empty 17 7 0 10 -162280
-1 -1;
#X text 103 100 Reverb;
#X obj 790 160 r~ verb_in;
#X obj 675 449 *~;
#X obj 758 411 *~;
#X obj 802 411 *~;
#X obj 758 502 s~ verb_L;
#X obj 838 502 s~ verb_R;
#X msg 174 251 \$1 10;
#X obj 174 271 line~;
#X obj 174 291 -~ 1;
#X obj 174 311 *~ -1;
#X obj 758 357 rev2~ 100 90 1000 20;
#X obj 895 317 * -1;
#X obj 895 337 + 100;
#X connect 1 0 17 0;
#X connect 2 0 12 0;
#X connect 3 0 16 2;
#X connect 6 0 7 0;
#X connect 6 0 16 0;
#X connect 7 0 10 0;
#X connect 7 0 11 0;
#X connect 8 0 10 0;
#X connect 9 0 11 0;
#X connect 12 0 13 0;
#X connect 13 0 8 1;
#X connect 13 0 9 1;
#X connect 13 0 14 0;
#X connect 14 0 15 0;
#X connect 15 0 7 1;
#X connect 16 0 8 0;
#X connect 16 1 9 0;
#X connect 17 0 18 0;
#X connect 18 0 16 4;
#X coords 0 -1 1 1 100 140 1 100 100;
#X restore 953 139 pd reverb;
#N canvas 0 50 1268 722 Operator1 0;
#X obj 229 264 - 10;
#X obj 269 264 - 10;
#X obj 349 263 - 10;
#X obj 304 263 - 0.01;
#X obj 249 3 loadbang;
#X obj 127 36 loadbang;
#X msg 127 64 0;
#X obj 101 101 cnv 15 283 138 empty empty empty 20 12 0 14 -233017
-66577 0;
#X obj 228 132 vsl 15 100 10 10010 1 0 empty empty A 0 -9 0 10 -162280
-1 -1 0 1;
#X obj 258 132 vsl 15 100 10 10010 1 0 empty empty D 0 -9 0 10 -162280
-1 -1 9900 1;
#X obj 288 132 vsl 15 100 0.01 1 1 0 empty empty S 0 -9 0 10 -162280
-1 -1 8410 1;
#X obj 318 132 vsl 15 100 10 10010 1 0 empty empty R 0 -9 0 10 -162280
-1 -1 5634 1;
#X text 232 100 Volume Envelope;
#X msg 321 29 10010;
#X msg 286 30 0.5;
#X msg 249 30 510;
#X msg 399 293 \$1 10;
#X obj 399 323 line;
#X msg 93 64 10;
#X obj 198 132 vsl 15 100 -127 127 0 0 Fine3 empty Fine -4 -9 0 10
-1 -162280 -1 4950 1;
#X obj 168 132 vsl 15 100 -12 12 0 0 Coarse3 empty Crs -2 -9 0 10 -1
-162280 -1 4950 1;
#X text 170 100 Tuning;
#X obj 399 263 - 0.01;
#X obj 108 182 vsl 15 50 1 20 0 0 OP3_Index empty Index 0 -9 0 10 -162280
-1 -1 2321 1;
#X obj 138 195 vradio 10 1 0 4 empty empty Oct 0 -8 0 10 -162280 -1
-1 1;
#X text 149 191 4;
#X text 149 221 1;
#X text 149 211 2;
#X text 149 201 3;
#X obj 138 267 * -1;
#X msg 163 63 1;
#X obj 138 287 + 1;
#X obj 138 307 s Oct3;
#X obj 229 293 s a3;
#X obj 269 293 s d3;
#X obj 304 293 s s3;
#X obj 349 293 s r3;
#X obj 399 353 s Level3;
#X obj 101 101 cnv 15 60 60 empty empty OP3 10 30 1 20 -3265 -1 0;
#X obj 352 132 vsl 15 100 0.01 1 1 0 empty empty Level 0 -9 0 10 -221174
-1 -1 8410 1;
#X obj 374 101 bng 10 250 50 0 empty empty empty 17 7 0 10 -3265 -1
-1;
#X connect 0 0 33 0;
#X connect 1 0 34 0;
#X connect 2 0 36 0;
#X connect 3 0 35 0;
#X connect 4 0 14 0;
#X connect 4 0 15 0;
#X connect 4 0 13 0;
#X connect 5 0 6 0;
#X connect 5 0 18 0;
#X connect 5 0 30 0;
#X connect 6 0 20 0;
#X connect 6 0 19 0;
#X connect 8 0 0 0;
#X connect 9 0 1 0;
#X connect 10 0 3 0;
#X connect 11 0 2 0;
#X connect 13 0 9 0;
#X connect 14 0 10 0;
#X connect 14 0 39 0;
#X connect 15 0 11 0;
#X connect 16 0 17 0;
#X connect 17 0 37 0;
#X connect 18 0 23 0;
#X connect 18 0 8 0;
#X connect 22 0 16 0;
#X connect 24 0 29 0;
#X connect 29 0 31 0;
#X connect 30 0 24 0;
#X connect 31 0 32 0;
#X connect 39 0 22 0;
#X connect 40 0 18 0;
#X connect 40 0 6 0;
#X connect 40 0 30 0;
#X connect 40 0 15 0;
#X connect 40 0 14 0;
#X connect 40 0 13 0;
#X coords 0 -1 1 1 285 140 2 100 100;
#X restore 568 279 pd Operator1;
#N canvas 0 50 1268 722 Operator1 0;
#X obj 229 264 - 10;
#X obj 269 264 - 10;
#X obj 349 263 - 10;
#X obj 304 263 - 0.01;
#X obj 249 3 loadbang;
#X obj 127 36 loadbang;
#X msg 127 64 0;
#X obj 101 101 cnv 15 283 138 empty empty empty 20 12 0 14 -233017
-66577 0;
#X obj 228 132 vsl 15 100 10 10010 1 0 empty empty A 0 -9 0 10 -162280
-1 -1 0 1;
#X obj 258 132 vsl 15 100 10 10010 1 0 empty empty D 0 -9 0 10 -162280
-1 -1 9900 1;
#X obj 288 132 vsl 15 100 0.01 1 1 0 empty empty S 0 -9 0 10 -162280
-1 -1 8410 1;
#X obj 318 132 vsl 15 100 10 10010 1 0 empty empty R 0 -9 0 10 -162280
-1 -1 5634 1;
#X text 232 100 Volume Envelope;
#X msg 321 29 10010;
#X msg 286 30 0.5;
#X msg 249 30 510;
#X msg 399 293 \$1 10;
#X obj 399 323 line;
#X msg 93 64 10;
#X obj 198 132 vsl 15 100 -127 127 0 0 Fine4 empty Fine -4 -9 0 10
-1 -162280 -1 4950 1;
#X obj 168 132 vsl 15 100 -12 12 0 0 Coarse4 empty Crs -2 -9 0 10 -1
-162280 -1 4950 1;
#X text 170 100 Tuning;
#X obj 399 263 - 0.01;
#X obj 108 182 vsl 15 50 1 20 0 0 OP4_Index empty Index 0 -9 0 10 -162280
-1 -1 2321 1;
#X obj 138 195 vradio 10 1 0 4 empty empty Oct 0 -8 0 10 -162280 -1
-1 1;
#X text 149 191 4;
#X text 149 221 1;
#X text 149 211 2;
#X text 149 201 3;
#X obj 138 267 * -1;
#X msg 163 63 1;
#X obj 138 287 + 1;
#X obj 138 307 s Oct4;
#X obj 229 293 s a4;
#X obj 269 293 s d4;
#X obj 304 293 s s4;
#X obj 349 293 s r4;
#X obj 399 353 s Level4;
#X obj 101 101 cnv 15 60 60 empty empty OP4 10 30 1 20 -262086 -1 0
;
#X obj 374 101 bng 10 250 50 0 empty empty empty 17 7 0 10 -262086
-1 -1;
#X obj 352 132 vsl 15 100 0.01 1 1 0 empty empty Level 0 -9 0 10 -257964
-1 -1 8410 1;
#X connect 0 0 33 0;
#X connect 1 0 34 0;
#X connect 2 0 36 0;
#X connect 3 0 35 0;
#X connect 4 0 14 0;
#X connect 4 0 15 0;
#X connect 4 0 13 0;
#X connect 5 0 6 0;
#X connect 5 0 18 0;
#X connect 5 0 30 0;
#X connect 6 0 20 0;
#X connect 6 0 19 0;
#X connect 8 0 0 0;
#X connect 9 0 1 0;
#X connect 10 0 3 0;
#X connect 11 0 2 0;
#X connect 13 0 9 0;
#X connect 14 0 10 0;
#X connect 14 0 40 0;
#X connect 15 0 11 0;
#X connect 16 0 17 0;
#X connect 17 0 37 0;
#X connect 18 0 23 0;
#X connect 18 0 8 0;
#X connect 22 0 16 0;
#X connect 24 0 29 0;
#X connect 29 0 31 0;
#X connect 30 0 24 0;
#X connect 31 0 32 0;
#X connect 39 0 18 0;
#X connect 39 0 6 0;
#X connect 39 0 30 0;
#X connect 39 0 15 0;
#X connect 39 0 14 0;
#X connect 39 0 13 0;
#X connect 40 0 22 0;
#X coords 0 -1 1 1 285 140 2 100 100;
#X restore 568 419 pd Operator1;
#X obj 300 258 sequencer;
#X connect 0 0 1 0;
#X connect 0 1 2 0;
#X connect 0 2 3 0;
#X connect 0 3 4 0;
#X connect 5 0 6 0;
#X connect 6 0 7 0;
#X connect 7 0 26 0;
#X connect 7 1 50 0;
#X connect 8 0 14 0;
#X connect 9 0 11 0;
#X connect 9 1 13 0;
#X connect 9 1 11 1;
#X connect 10 0 9 1;
#X connect 11 0 5 0;
#X connect 11 1 5 1;
#X connect 11 2 5 2;
#X connect 12 0 8 0;
#X connect 14 0 9 0;
#X connect 21 0 9 2;
#X connect 23 0 18 0;
#X connect 26 0 28 0;
#X connect 27 0 26 1;
#X connect 27 0 50 1;
#X connect 29 0 53 0;
#X connect 33 0 34 0;
#X connect 33 1 34 1;
#X connect 34 0 44 0;
#X connect 34 1 44 1;
#X connect 34 2 40 0;
#X connect 35 0 0 0;
#X connect 36 0 37 0;
#X connect 37 0 38 1;
#X connect 38 0 39 0;
#X connect 39 0 44 2;
#X connect 40 0 41 0;
#X connect 40 1 38 0;
#X connect 41 0 42 0;
#X connect 42 0 44 2;
#X connect 43 0 54 0;
#X connect 44 0 35 0;
#X connect 45 0 0 0;
#X connect 46 0 45 0;
#X connect 50 0 51 0;
#X connect 52 0 45 1;
#X connect 53 0 10 0;
#X connect 53 1 21 0;
#X connect 53 2 14 0;
#X connect 53 3 12 0;
#X connect 54 0 36 0;
#X connect 59 0 34 0;
#X connect 59 1 34 1;
